<?xml version="1.0" standalone="no"?>
<!DOCTYPE svg PUBLIC "-//W3C//DTD SVG 20010904//EN"
 "http://www.w3.org/TR/2001/REC-SVG-20010904/DTD/svg10.dtd">
<svg version="1.0" xmlns="http://www.w3.org/2000/svg"
 width="696.000000pt" height="696.000000pt" viewBox="0 0 696.000000 696.000000"
 preserveAspectRatio="xMidYMid meet">
<metadata>
Created by potrace 1.11, written by Peter Selinger 2001-2013
</metadata>
<g transform="translate(0.000000,696.000000) scale(0.100000,-0.100000)"
fill="#000000" stroke="none">
<path d="M3667 5994 c-2 -3 -78 -7 -168 -10 -177 -6 -274 -9 -469 -18 -135 -6
-319 -12 -555 -20 -82 -3 -179 -8 -215 -11 -36 -3 -101 -5 -146 -5 -159 1
-313 -47 -385 -121 -84 -85 -119 -187 -125 -363 -3 -108 -4 -109 -36 -141 -61
-60 -71 -79 -92 -169 -9 -37 -14 -81 -11 -98 3 -17 8 -103 10 -190 2 -87 9
-176 15 -198 11 -39 10 -65 -4 -120 -13 -50 -13 -106 0 -160 18 -75 18 -84 -3
-75 -38 14 -142 17 -199 4 -32 -7 -64 -14 -71 -15 -51 -9 -129 -44 -186 -82
-64 -42 -147 -118 -147 -134 0 -3 -6 -13 -13 -20 -26 -26 -69 -109 -81 -156
-12 -45 -14 -47 -57 -56 -24 -5 -46 -13 -49 -16 -3 -4 -21 -18 -40 -31 -20
-13 -54 -44 -75 -69 -22 -24 -57 -63 -78 -85 -22 -22 -51 -56 -65 -75 -15 -19
-33 -41 -39 -48 -7 -7 -16 -25 -19 -40 -3 -15 -12 -49 -18 -77 -24 -96 29
-231 114 -294 l35 -26 -3 -230 c-2 -207 2 -265 25 -352 2 -7 4 -19 6 -26 14
-68 187 -217 250 -217 25 0 41 -70 27 -121 -21 -79 43 -256 105 -289 21 -11
21 -13 -24 -60 -40 -42 -49 -60 -66 -131 -19 -75 -19 -88 -7 -143 30 -140 101
-217 228 -247 43 -10 91 -16 108 -14 17 3 61 7 98 10 37 2 92 7 122 10 61 7
54 15 77 -85 26 -112 104 -190 215 -216 72 -16 71 -16 379 10 125 11 227 36
277 70 43 29 56 44 99 115 13 22 24 27 69 29 32 2 67 -2 89 -11 60 -25 149
-39 194 -31 23 4 50 7 59 5 10 -1 43 3 75 9 32 6 81 13 108 15 51 4 80 9 118
21 12 4 35 6 52 6 16 -1 55 4 85 10 30 6 66 10 80 9 14 0 48 3 75 9 28 6 75
12 105 15 30 2 62 6 70 8 20 5 95 15 150 21 25 2 56 7 70 10 14 3 50 7 80 11
30 3 62 7 70 8 19 5 92 15 147 21 22 3 52 7 65 10 12 3 53 7 90 11 37 3 78 9
92 15 16 6 27 6 31 -1 4 -5 10 -7 14 -5 14 9 81 20 351 56 175 23 238 32 260
35 8 2 56 8 105 14 50 6 105 13 123 16 75 11 100 15 147 21 28 3 95 12 150 20
55 7 123 16 150 19 28 3 61 8 75 10 14 3 48 7 75 11 28 3 57 8 67 9 9 2 38 6
65 10 145 20 251 46 282 69 50 37 111 111 117 141 5 27 17 40 65 70 73 45 152
140 163 197 2 12 11 50 19 83 11 48 12 70 3 105 -7 25 -12 48 -13 53 -8 44
-17 75 -26 92 -6 11 -12 61 -12 110 -2 131 -29 236 -82 316 -24 36 -43 68 -43
71 0 3 14 21 31 39 82 87 129 210 109 280 -6 19 -13 48 -16 64 -2 17 -19 50
-36 73 -27 39 -30 51 -29 109 1 41 6 70 15 77 33 27 76 107 91 167 15 60 15
70 0 130 -9 35 -28 81 -42 102 -27 38 -98 97 -118 97 -7 0 -23 9 -36 21 -43
38 -103 67 -161 79 -95 19 -205 -19 -284 -97 -26 -26 -33 -28 -63 -20 -19 5
-51 6 -70 2 -20 -4 -37 -7 -38 -6 -12 2 -91 -34 -115 -53 -29 -22 -34 -23 -62
-11 -17 8 -38 16 -47 18 -8 3 -21 23 -28 46 -12 43 -99 139 -175 196 -49 36
-173 67 -216 55 l-30 -9 -1 140 c0 76 -1 155 -1 174 0 93 0 91 40 103 60 18
148 87 196 155 80 113 111 311 76 489 -14 69 -15 90 -4 136 23 98 2 226 -49
303 -27 40 -102 103 -124 104 -5 1 -32 7 -61 14 -67 17 -301 20 -367 6 -38 -9
-63 -8 -105 1 -69 16 -220 41 -285 48 -71 8 -141 21 -290 52 -107 22 -160 28
-302 30 -94 1 -173 0 -176 -2z"/>
</g>
</svg>
