<?xml version="1.0" standalone="no"?>
<!DOCTYPE svg PUBLIC "-//W3C//DTD SVG 20010904//EN"
 "http://www.w3.org/TR/2001/REC-SVG-20010904/DTD/svg10.dtd">
<svg version="1.0" xmlns="http://www.w3.org/2000/svg"
 width="512.000000pt" height="512.000000pt" viewBox="0 0 512.000000 512.000000"
 preserveAspectRatio="xMidYMid meet">
<metadata>
Created by potrace 1.11, written by Peter Selinger 2001-2013
</metadata>
<g transform="translate(0.000000,512.000000) scale(0.100000,-0.100000)"
fill="#000000" stroke="none">
<path d="M2326 4873 c11 -8 18 -19 16 -24 -1 -5 5 -12 13 -15 8 -3 13 -10 10
-14 -3 -5 0 -12 6 -16 8 -4 9 -3 5 4 -4 7 -2 12 4 12 6 0 -1 12 -15 27 -14 15
-25 30 -25 34 0 3 -7 6 -16 6 -14 0 -14 -2 2 -14z"/>
<path d="M2119 4853 c-1 -9 -5 -29 -10 -53 -2 -8 -8 -18 -12 -21 -4 -3 -9 -16
-10 -27 -1 -12 -5 -22 -9 -22 -4 0 -8 -9 -8 -21 0 -12 4 -17 11 -14 6 4 8 10
5 13 -3 3 -1 11 5 19 6 7 8 13 5 13 -4 0 -1 10 6 23 7 12 13 25 14 30 1 4 3 8
4 10 5 4 9 57 4 57 -2 0 -4 -3 -5 -7z"/>
<path d="M2050 4847 c0 -2 -13 -41 -30 -87 -35 -96 -34 -90 -17 -90 6 0 23 31
36 68 31 90 36 112 22 112 -6 0 -11 -2 -11 -3z"/>
<path d="M2928 4768 c90 -75 97 -84 78 -92 -21 -8 -21 -8 -1 -16 11 -5 14 -9
8 -11 -7 -1 -16 -2 -20 -3 -19 -5 -340 -56 -383 -62 -19 -2 -57 -8 -85 -14
-27 -5 -72 -12 -100 -16 -27 -3 -59 -8 -70 -10 -76 -15 -165 -30 -230 -38 -37
-6 -55 -9 -320 -52 -115 -20 -227 -37 -249 -39 -21 -3 -46 -6 -55 -9 -9 -3
-37 -7 -64 -11 -83 -10 -92 -17 -118 -90 -13 -37 -30 -70 -39 -75 -22 -12 -56
-5 -52 10 1 6 -2 9 -8 5 -5 -3 -10 -2 -10 3 0 6 -11 9 -24 8 -18 -1 -22 -4
-14 -13 14 -17 -4 -17 -21 0 -7 6 -12 8 -11 2 5 -23 -1 -36 -12 -29 -7 4 -8 3
-4 -5 4 -6 2 -19 -5 -27 -10 -12 -10 -15 2 -12 8 2 13 -3 11 -12 -1 -8 6 -4
17 10 13 16 16 29 10 35 -5 5 -9 14 -9 19 0 19 47 -39 54 -67 6 -26 5 -27 -14
-15 -23 15 -25 24 -7 31 7 4 8 6 1 6 -7 1 -20 -11 -29 -26 -10 -16 -12 -23 -5
-16 14 13 43 6 34 -8 -3 -5 -10 -6 -16 -3 -7 4 -8 2 -4 -5 6 -9 11 -9 22 0 8
6 14 8 14 4 0 -4 6 -2 13 4 8 6 16 10 18 8 2 -1 -2 4 -10 10 -20 18 -5 29 16
12 9 -8 14 -9 10 -3 -4 7 0 14 8 18 19 7 19 2 1 -37 -8 -18 -60 -153 -116
-302 -56 -148 -118 -310 -137 -360 -72 -187 -82 -212 -113 -295 -18 -47 -34
-87 -36 -89 -2 -3 -15 6 -29 19 l-24 23 -1 301 c-1 444 -1 519 5 524 3 3 -18
27 -45 54 -28 27 -48 53 -45 58 3 5 1 11 -4 15 -6 3 -7 13 -4 23 6 15 5 16
-12 2 -17 -14 -18 -13 -13 8 4 12 2 22 -3 22 -5 0 -9 -7 -9 -15 0 -22 -8 -19
-59 22 -48 39 -38 18 14 -29 17 -16 24 -28 16 -28 -11 0 -11 -3 -1 -15 11 -14
7 -22 -28 -58 -23 -24 -42 -46 -42 -51 0 -4 16 -24 35 -43 31 -31 43 -64 35
-98 -1 -5 -2 -31 -1 -57 1 -47 -1 -50 -77 -128 -43 -44 -81 -80 -83 -80 -3 0
-5 92 -5 205 l1 206 -56 54 c-31 30 -59 55 -62 55 -3 0 -56 -50 -117 -111
l-112 -112 24 -24 24 -24 49 50 c69 71 87 67 89 -19 0 -26 8 -55 16 -66 13
-17 13 -18 -1 -7 -14 11 -15 -27 -15 -387 l1 -399 35 -35 c19 -20 38 -36 42
-36 4 0 24 16 44 36 l38 35 0 196 1 196 75 78 c41 43 78 78 81 79 4 0 6 -106
6 -236 l0 -235 75 -76 75 -75 -30 -78 -30 -78 72 -88 c39 -49 69 -94 67 -101
-3 -7 1 -10 9 -7 13 5 42 -33 37 -49 -1 -5 1 -6 6 -3 5 3 31 -23 59 -57 139
-174 143 -184 94 -239 -16 -18 -32 -49 -36 -68 -4 -19 -15 -49 -25 -67 -10
-17 -18 -46 -17 -65 2 -29 5 -33 27 -31 41 3 60 9 72 21 15 15 48 16 48 1 0
-5 -5 -7 -12 -3 -6 4 -8 3 -5 -3 8 -12 -20 -26 -34 -18 -5 4 -6 -1 -3 -9 7
-18 -11 -22 -21 -6 -9 15 -24 3 -20 -18 2 -9 4 -21 4 -27 1 -5 6 -3 11 5 5 8
10 12 10 7 0 -4 11 0 25 9 14 9 25 12 25 8 0 -5 7 0 15 10 11 14 15 16 15 5 0
-8 3 -10 8 -4 4 6 16 11 26 10 11 0 21 6 24 13 2 6 -1 12 -7 12 -6 0 -11 4
-11 10 0 5 8 6 17 3 12 -5 15 -2 10 10 -3 9 4 25 19 41 25 24 25 25 5 35 -14
8 -22 8 -27 -1 -5 -7 -3 -8 6 -3 9 5 11 4 6 -3 -5 -8 -1 -10 11 -6 14 5 15 4
4 -4 -8 -6 -21 -7 -30 -4 -14 5 -14 3 -3 -10 11 -14 11 -18 -1 -25 -8 -4 -19
-17 -26 -28 l-13 -20 6 20 c6 20 6 20 -9 1 -13 -17 -15 -17 -15 -4 0 9 9 20
20 23 11 4 18 11 15 16 -3 5 2 6 12 2 14 -5 16 -3 6 7 -9 10 -9 18 -1 34 6 12
12 23 12 26 1 3 4 4 9 2 4 -1 7 3 7 9 0 10 84 -88 189 -219 14 -18 31 -39 36
-45 6 -7 37 -46 70 -87 32 -41 62 -77 65 -80 4 -4 226 -275 235 -287 1 -2 26
1 56 7 65 11 123 20 164 26 17 2 46 6 65 9 77 13 267 44 295 48 17 3 57 10 90
16 33 6 80 13 105 16 25 3 86 12 135 21 50 8 101 17 115 19 14 2 66 11 115 19
50 8 113 18 140 22 28 3 59 8 70 10 11 3 36 7 55 10 19 3 46 7 60 10 14 2 70
11 125 19 125 20 141 26 148 62 6 33 25 38 70 21 23 -9 31 -7 50 10 25 23 102
39 112 22 11 -17 49 -11 63 10 9 15 10 26 2 40 -13 23 -55 27 -67 5 -5 -8 -25
-17 -46 -20 l-38 -6 21 33 c11 18 20 39 20 46 0 7 7 20 15 29 20 20 16 42 -12
60 -19 13 -24 12 -43 -7 -20 -20 -20 -23 -5 -46 9 -14 13 -34 9 -48 -7 -29
-39 -60 -52 -52 -5 3 -22 -4 -36 -15 -15 -12 -29 -19 -32 -16 -4 3 147 414
194 527 6 14 39 99 73 190 34 91 62 166 63 167 1 2 50 10 69 12 5 1 6 5 3 10
-3 4 -17 6 -31 3 -14 -2 -25 0 -25 6 0 5 19 59 43 119 41 105 43 108 76 111
22 3 31 0 27 -7 -4 -6 0 -11 9 -11 9 0 14 -4 10 -9 -3 -5 8 -19 24 -31 l30
-21 31 32 c16 18 30 36 30 41 0 5 4 7 9 4 9 -6 26 10 33 29 1 6 7 8 13 7 5 -2
7 0 3 3 -4 4 4 16 17 27 14 11 22 24 19 30 -4 6 -10 6 -16 0 -6 -6 -17 -8 -24
-5 -9 3 -14 -1 -14 -12 0 -10 -5 -13 -12 -9 -6 4 -8 3 -5 -3 10 -16 -18 -24
-33 -10 -8 8 -11 8 -7 1 4 -6 0 -20 -7 -30 -10 -13 -11 -25 -5 -39 8 -16 6
-16 -7 3 -9 12 -22 22 -28 22 -6 0 -4 -5 4 -10 13 -8 12 -12 -5 -29 -14 -15
-24 -18 -35 -11 -11 7 -11 10 -2 10 7 0 11 4 7 9 -3 5 5 18 17 28 13 11 59 56
102 101 79 80 80 82 61 102 -10 11 -22 20 -27 20 -4 0 -28 -21 -52 -46 -51
-55 -81 -56 -74 -3 3 16 1 32 -4 35 -5 3 -6 10 -3 15 4 5 1 9 -6 9 -6 0 -9 -8
-6 -20 3 -11 1 -18 -4 -15 -14 9 -7 56 8 51 16 -7 27 11 12 20 -8 5 -9 3 -4
-6 5 -9 4 -11 -4 -6 -8 5 -9 12 -3 19 5 7 13 30 16 51 5 23 20 51 37 68 16 16
29 34 29 39 0 6 6 7 13 3 7 -5 6 0 -3 11 -11 14 -11 17 -1 11 8 -5 17 -3 22 5
4 8 14 14 21 14 7 0 13 7 13 15 1 8 6 14 13 12 7 -1 11 1 10 5 -3 8 38 53 47
53 3 0 7 0 10 0 3 0 1 8 -4 18 -7 13 -6 23 2 31 9 10 9 12 -3 9 -15 -3 -21 20
-8 38 4 6 -23 40 -67 84 l-75 75 -113 -113 c-105 -104 -113 -111 -127 -94 -8
10 -62 76 -120 147 -57 72 -107 132 -110 135 -3 3 -67 82 -143 176 -84 105
-135 177 -132 186 3 8 2 25 -3 39 -7 18 -17 24 -38 24 -29 0 -21 -9 -251 273
-41 51 -74 95 -72 97 2 2 18 -7 34 -21 17 -13 62 -47 100 -75 l70 -51 -53 50
c-28 28 -69 65 -90 82 -23 20 -32 34 -24 37 18 7 15 20 -8 26 -18 5 -19 9 -10
33 11 28 11 28 -9 9 -20 -18 -21 -18 -22 1 -3 50 -6 75 -12 81 -6 5 -12 -56
-8 -79 3 -19 -28 -3 -125 62 -58 39 -107 70 -110 70 -2 0 40 -37 94 -82z
m-1722 -546 c-9 -2 -13 -9 -10 -15 5 -9 4 -9 -5 -1 -6 6 -9 18 -5 28 5 14 9
14 22 4 13 -12 13 -13 -2 -16z m-51 -33 c-10 -15 -25 -10 -19 6 4 8 10 12 15
9 5 -3 7 -10 4 -15z m-811 -534 c4 -49 9 -110 11 -135 2 -25 7 -79 10 -120 3
-41 8 -91 10 -110 4 -38 18 -227 18 -247 1 -21 11 -4 13 20 1 26 14 166 19
217 2 19 5 55 6 80 2 37 8 51 38 78 20 19 73 70 119 114 47 46 87 77 92 72 5
-5 11 -56 15 -114 3 -58 8 -121 10 -140 2 -19 6 -80 10 -135 4 -55 10 -103 14
-107 4 -5 7 2 8 15 0 12 3 56 6 97 4 41 9 116 13 165 4 50 8 101 9 115 2 14 3
42 4 63 1 21 4 36 9 33 4 -2 7 -112 7 -245 l-1 -240 32 -33 31 -33 -25 -65
c-14 -36 -27 -67 -29 -69 -2 -3 -33 26 -71 63 l-67 68 -1 241 c-1 133 -2 249
-3 257 -1 8 -45 -30 -98 -84 l-97 -98 1 -192 1 -193 -30 -32 c-32 -34 -28 -34
-80 9 -17 13 -18 42 -18 399 0 211 2 382 4 380 2 -2 7 -44 10 -94z m322 41 c2
-31 -7 -43 -95 -130 -54 -53 -101 -96 -104 -96 -4 0 -7 10 -7 22 0 14 35 57
101 124 67 69 98 107 93 116 -4 7 -3 10 1 6 5 -5 9 -23 11 -42z m3613 -31 c39
-39 58 -65 49 -65 -9 0 -28 14 -42 31 -14 17 -30 27 -36 24 -6 -4 -8 -11 -5
-16 4 -5 -1 -9 -9 -9 -8 0 -21 -9 -29 -20 -8 -11 -17 -17 -22 -12 -5 4 -5 1
-1 -5 13 -23 -9 -13 -37 17 l-28 29 43 46 c23 25 45 45 48 45 3 0 34 -29 69
-65z m-3491 30 c-3 -3 -9 2 -12 12 -6 14 -5 15 5 6 7 -7 10 -15 7 -18z m-2
-40 c0 -14 -4 -25 -8 -25 -6 0 -5 25 1 48 3 10 7 -2 7 -23z m3505 -41 c18 -19
27 -34 19 -32 -8 2 -14 -3 -12 -9 1 -7 -4 -12 -10 -10 -7 1 -12 -4 -10 -10 1
-7 -4 -12 -10 -10 -7 1 -12 -4 -10 -11 1 -8 -2 -11 -8 -7 -5 3 -10 2 -10 -4 0
-6 -22 -33 -49 -61 -34 -35 -54 -48 -65 -44 -9 4 -16 3 -15 -2 5 -29 -2 -37
-15 -19 -8 11 -12 23 -10 27 3 5 -2 8 -10 8 -8 0 -18 5 -22 12 -5 8 -2 9 12 4
10 -4 15 -4 11 0 -4 4 -1 14 6 22 10 13 9 14 -11 3 -26 -14 -44 -5 -63 31 -9
16 -2 28 41 70 l51 50 -2 -73 c-1 -41 -5 -79 -10 -85 -5 -6 -3 -18 4 -28 12
-17 17 -14 65 34 28 28 56 49 61 46 8 -5 9 12 2 54 -1 3 -5 -1 -10 -9 -6 -9
-11 -10 -15 -2 -4 6 -2 11 3 11 6 0 10 3 10 8 -3 20 3 30 27 40 14 7 22 17 19
22 -12 19 1 10 36 -26z m-130 -42 l34 -38 -21 -21 c-27 -26 -32 -22 -28 20 2
20 1 27 -5 19 -4 -8 -7 -26 -5 -42 2 -17 -3 -33 -13 -42 -12 -9 -15 -10 -9 0
12 19 17 62 8 62 -4 0 -8 18 -8 40 0 22 3 40 6 40 4 0 22 -17 41 -38z m176 1
c-4 -3 -2 -12 4 -20 6 -7 8 -13 5 -13 -4 0 -1 -10 5 -22 6 -13 8 -20 3 -15
-10 10 -85 -63 -77 -76 3 -6 1 -7 -4 -4 -6 4 -16 0 -23 -8 -6 -7 -19 -11 -27
-8 -12 5 -15 2 -11 -9 7 -16 -37 -78 -55 -78 -8 0 -7 3 2 9 11 7 9 10 -8 16
-11 3 -21 12 -21 18 0 20 132 146 147 140 9 -4 11 0 7 13 -5 16 -4 16 5 4 9
-13 11 -13 12 0 1 8 1 18 0 23 0 4 6 7 14 7 8 0 14 3 14 8 -2 13 1 22 8 22 3
0 3 -3 0 -7z m-42 -443 c7 -12 -113 -132 -124 -125 -4 2 -19 -2 -34 -10 -14
-7 -28 -11 -31 -8 -3 3 -13 0 -23 -8 -14 -12 -16 -12 -8 0 6 11 4 13 -8 8 -10
-4 -14 -2 -11 7 3 7 19 12 39 11 19 -1 35 2 35 6 0 5 7 5 17 2 12 -5 14 -3 8
8 -7 11 -5 11 11 -1 19 -14 19 -14 0 7 -19 23 -35 25 -49 8 -5 -6 -7 -4 -4 6
3 9 -1 16 -8 16 -7 0 -12 -5 -11 -11 2 -6 1 -7 -2 -3 -2 4 -11 0 -19 -10 -12
-14 -11 -12 1 9 9 15 16 34 16 42 0 8 5 18 11 22 8 4 9 -1 4 -16 -6 -19 -4
-22 9 -17 10 4 14 3 11 -2 -3 -5 -1 -12 5 -16 5 -3 10 -1 10 4 0 7 7 7 20 -1
18 -11 25 -8 67 35 50 49 58 54 68 37z m-15 -140 c-19 -16 -35 -35 -35 -42 -1
-7 -6 -12 -13 -10 -7 1 -15 -5 -19 -14 -4 -12 -8 -13 -13 -3 -5 7 -3 20 3 30
10 16 12 16 25 1 7 -9 11 -12 8 -5 -4 6 5 23 19 37 14 14 25 22 25 19 0 -4 5
-2 12 5 7 7 14 12 18 12 3 0 -11 -14 -30 -30z m-140 -15 c0 -2 -10 -9 -22 -15
-22 -11 -22 -10 -4 4 21 17 26 19 26 11z m34 -96 c-9 -10 -21 -16 -26 -13 -5
3 -2 14 8 25 9 10 21 16 26 13 5 -3 2 -14 -8 -25z m-3008 -674 c13 -10 5 -38
-10 -36 -3 1 -15 -8 -25 -18 -14 -14 -16 -21 -8 -25 7 -2 4 -5 -5 -5 -10 -1
-19 -5 -19 -11 -1 -5 -3 -14 -4 -20 -1 -5 -4 -12 -5 -15 -1 -3 -4 -9 -5 -15
-1 -5 -4 -12 -5 -15 -1 -3 -3 -10 -4 -16 -1 -10 -43 -38 -58 -39 -12 0 -10 58
2 65 5 3 17 33 26 66 10 34 25 66 36 72 10 7 18 15 18 19 0 4 5 19 11 35 l11
28 15 -30 c9 -16 22 -34 29 -40z m29 -46 c-4 -5 0 -9 7 -9 10 0 10 -2 0 -9 -8
-4 -14 -12 -14 -17 -1 -29 -33 -49 -68 -44 -8 1 -13 0 -10 -2 3 -2 12 -9 22
-16 12 -10 18 -10 24 -1 5 8 3 9 -6 4 -9 -5 -11 -4 -6 3 9 14 26 16 26 3 0
-16 -31 -42 -41 -35 -6 3 -16 1 -24 -6 -8 -7 -15 -7 -19 -1 -4 5 -2 12 4 16 6
4 8 10 5 15 -3 5 -1 11 5 15 6 4 8 10 5 15 -3 5 4 14 15 20 11 6 19 14 18 18
-3 14 14 42 22 37 5 -3 11 -1 15 5 4 6 11 8 16 4 5 -3 7 -10 4 -15z m0 -181
c3 -3 -8 -4 -25 -3 -18 2 -34 -3 -36 -9 -3 -7 -12 -13 -20 -13 -12 0 -10 5 6
17 21 16 63 21 75 8z m-126 -31 c8 -10 7 -14 -2 -14 -8 0 -14 6 -14 14 0 7 1
13 2 13 2 0 8 -6 14 -13z m2684 -11 c3 -8 0 -17 -8 -19 -15 -7 -25 1 -25 20 0
17 26 17 33 -1z m81 -122 c18 -7 10 -34 -10 -34 -8 0 -14 9 -14 20 0 22 1 23
24 14z m-164 -38 c0 -21 -21 -31 -30 -15 -5 7 -6 17 -4 21 9 14 34 9 34 -6z"/>
<path d="M4236 3606 l-29 -23 22 -15 c16 -11 19 -17 9 -21 -7 -3 -8 -6 -2 -6
5 -1 22 12 37 27 26 27 27 29 9 45 -16 15 -20 15 -46 -7z m38 -27 c-13 -15
-21 -16 -37 -7 -20 10 -20 11 4 29 17 13 27 15 37 7 10 -9 9 -14 -4 -29z"/>
<path d="M4247 3595 c-15 -10 -15 -14 -3 -18 8 -3 20 0 26 8 15 18 -1 26 -23
10z"/>
<path d="M4310 3520 c-12 -17 -29 -29 -38 -28 -12 2 -17 -4 -17 -22 1 -28 -15
-51 -29 -42 -5 3 -6 -1 -1 -7 10 -17 114 85 112 110 -2 24 -2 24 -27 -11z
m-11 -36 c-33 -33 -35 -33 -36 -12 -2 15 1 19 6 10 6 -10 14 -6 32 16 13 16
26 28 29 25 2 -2 -12 -19 -31 -39z"/>
<path d="M4182 3388 c-6 -6 -8 -17 -5 -25 5 -13 2 -13 -15 -4 -12 7 -22 9 -22
7 0 -3 9 -10 19 -15 15 -9 22 -6 35 14 16 25 8 43 -12 23z"/>
<path d="M4159 2883 c-13 -16 -12 -17 4 -4 9 7 17 15 17 17 0 8 -8 3 -21 -13z"/>
<path d="M1120 2192 c0 -12 3 -13 11 -5 6 6 19 9 28 6 9 -4 13 -3 10 1 -4 4
-16 8 -28 11 -14 3 -21 -1 -21 -13z"/>
<path d="M1165 2154 c-11 -8 -19 -24 -17 -35 2 -11 0 -19 -5 -18 -4 1 -15 1
-23 0 -13 -1 -13 -3 -1 -10 22 -14 67 22 67 53 0 14 0 26 0 26 -1 0 -10 -7
-21 -16z m11 -19 c-1 -8 -6 -18 -11 -22 -4 -4 -5 -2 -1 5 4 7 2 12 -6 12 -9 0
-9 3 2 10 19 12 19 13 16 -5z"/>
<path d="M1102 2065 c4 -5 2 -15 -5 -24 -10 -14 -10 -14 5 -3 9 8 22 11 28 7
5 -3 10 -4 10 -1 0 3 -10 11 -22 17 -13 6 -20 8 -16 4z"/>
<path d="M3148 4833 c7 -3 16 -2 19 1 4 3 -2 6 -13 5 -11 0 -14 -3 -6 -6z"/>
<path d="M2190 4798 c0 -5 -4 -7 -9 -3 -5 3 -12 1 -15 -4 -4 -5 2 -8 11 -6 10
2 24 4 31 4 17 1 15 18 -3 18 -8 0 -15 -4 -15 -9z"/>
<path d="M2230 4799 c0 -5 5 -7 10 -4 6 3 10 8 10 11 0 2 -4 4 -10 4 -5 0 -10
-5 -10 -11z"/>
<path d="M2260 4800 c0 -5 7 -7 15 -4 8 4 15 8 15 10 0 2 -7 4 -15 4 -8 0 -15
-4 -15 -10z"/>
<path d="M2350 4795 c2 -5 1 -12 0 -15 -7 -19 -7 -39 1 -34 5 3 7 9 4 14 -3 4
1 10 7 13 10 4 10 7 0 18 -7 8 -13 10 -12 4z"/>
<path d="M3230 4782 c0 -4 9 -13 20 -20 23 -14 26 -7 6 14 -16 15 -26 18 -26
6z"/>
<path d="M1938 4765 c-2 -3 -20 -7 -39 -9 -19 -2 -38 -4 -42 -5 -5 0 -5 -6 -1
-12 4 -7 20 -8 43 -4 20 4 45 8 55 9 26 1 33 26 9 26 -11 0 -22 -2 -25 -5z"/>
<path d="M3174 4751 c4 -6 12 -9 17 -5 5 3 17 0 25 -7 8 -6 17 -9 21 -5 10 9
0 15 -37 22 -24 5 -31 4 -26 -5z"/>
<path d="M1770 4736 c0 -9 5 -16 10 -16 6 0 10 4 10 9 0 6 -4 13 -10 16 -5 3
-10 -1 -10 -9z"/>
<path d="M1675 4719 c-10 -16 0 -21 29 -13 14 3 23 10 20 15 -7 12 -41 11 -49
-2z"/>
<path d="M1630 4711 c0 -6 -9 -8 -20 -6 -11 2 -20 0 -20 -6 0 -13 43 -5 48 9
2 7 1 12 -2 12 -3 0 -6 -4 -6 -9z"/>
<path d="M3335 4714 c-5 -1 -27 -5 -47 -9 -21 -3 -38 -10 -38 -15 0 -4 8 -7
18 -5 9 2 26 4 37 4 22 1 52 17 45 24 -3 2 -9 3 -15 1z"/>
<path d="M1560 4700 c0 -5 -8 -7 -17 -3 -10 3 -15 3 -12 -1 4 -4 16 -8 27 -11
15 -2 19 0 15 11 -6 16 -13 19 -13 4z"/>
<path d="M3180 4680 c0 -12 17 -12 45 0 17 7 15 9 -12 9 -18 1 -33 -3 -33 -9z"/>
<path d="M3245 4651 c-3 -5 -1 -12 5 -16 5 -3 10 1 10 9 0 18 -6 21 -15 7z"/>
<path d="M3220 4590 c0 -5 5 -10 11 -10 5 0 7 5 4 10 -3 6 -8 10 -11 10 -2 0
-4 -4 -4 -10z"/>
<path d="M1415 4580 c3 -5 8 -10 11 -10 2 0 4 5 4 10 0 6 -5 10 -11 10 -5 0
-7 -4 -4 -10z"/>
<path d="M790 4435 c0 -8 -4 -15 -8 -15 -4 0 -8 -16 -9 -35 0 -25 4 -36 18
-40 10 -4 18 -11 16 -17 -1 -6 4 -13 11 -15 19 -7 14 14 -7 29 -26 19 -34 51
-16 74 17 23 19 34 5 34 -5 0 -10 -7 -10 -15z"/>
<path d="M1032 4421 c2 -7 7 -12 11 -12 12 1 9 15 -3 20 -7 2 -11 -2 -8 -8z"/>
<path d="M3560 4415 c0 -9 6 -12 15 -9 8 4 15 10 15 15 0 5 -7 9 -15 9 -8 0
-15 -7 -15 -15z"/>
<path d="M960 4410 c0 -5 5 -10 11 -10 5 0 7 5 4 10 -3 6 -8 10 -11 10 -2 0
-4 -4 -4 -10z"/>
<path d="M906 4399 c6 -10 44 -7 44 3 0 4 -11 7 -24 6 -14 -1 -23 -6 -20 -9z"/>
<path d="M864 4392 c4 -3 14 -7 22 -8 9 -1 13 0 10 4 -4 3 -14 7 -22 8 -9 1
-13 0 -10 -4z"/>
<path d="M3583 4292 c-12 -2 -24 -10 -27 -18 -4 -11 1 -14 22 -10 15 2 35 5
45 5 9 1 17 5 17 10 0 11 -28 18 -57 13z"/>
<path d="M975 4280 c3 -5 8 -10 11 -10 2 0 4 5 4 10 0 6 -5 10 -11 10 -5 0 -7
-4 -4 -10z"/>
<path d="M685 4240 c-3 -5 -1 -10 4 -10 6 0 11 5 11 10 0 6 -2 10 -4 10 -3 0
-8 -4 -11 -10z"/>
<path d="M790 4161 c0 -5 7 -12 16 -15 21 -8 24 -8 24 5 0 5 -4 7 -10 4 -5 -3
-10 -1 -10 4 0 6 -4 11 -10 11 -5 0 -10 -4 -10 -9z"/>
<path d="M742 4141 c-10 -6 -4 -10 19 -15 18 -3 34 -4 37 -1 3 3 -2 5 -11 5
-9 0 -17 5 -17 10 0 12 -10 13 -28 1z"/>
<path d="M554 4075 c-10 -8 -14 -14 -9 -15 15 0 40 18 34 24 -3 3 -14 -1 -25
-9z"/>
<path d="M4660 3790 c0 -5 5 -10 11 -10 5 0 7 5 4 10 -3 6 -8 10 -11 10 -2 0
-4 -4 -4 -10z"/>
<path d="M4840 3770 c0 -5 5 -10 11 -10 5 0 7 5 4 10 -3 6 -8 10 -11 10 -2 0
-4 -4 -4 -10z"/>
<path d="M4461 3696 l-54 -55 35 -39 35 -39 1 -166 c0 -122 -3 -167 -11 -167
-7 0 -21 -7 -31 -15 -23 -17 -12 -35 23 -38 15 -1 21 -8 21 -23 0 -24 -9 -28
-77 -39 -24 -4 -43 -11 -43 -17 0 -6 11 -7 28 -3 15 4 41 8 57 9 l30 1 2 -62
c1 -56 -1 -63 -18 -64 -10 -1 -23 -3 -29 -4 -5 -1 -17 -3 -25 -4 -8 0 -15 -6
-15 -12 0 -6 11 -8 28 -5 79 18 81 17 88 -9 3 -14 10 -23 14 -20 4 2 16 -5 26
-16 10 -11 14 -20 9 -19 -22 5 -45 -1 -45 -10 0 -6 20 -9 47 -8 37 2 49 7 51
21 4 18 -17 20 -30 2 -5 -6 -8 -3 -8 7 0 9 9 20 20 23 12 4 17 11 13 18 -4 7
1 5 11 -2 16 -13 18 -13 16 0 -4 23 0 39 8 39 4 0 8 -11 8 -25 0 -23 -7 -30
-28 -26 -5 0 -8 -4 -8 -9 0 -6 4 -10 10 -10 5 0 9 -3 9 -7 -5 -29 3 -33 20
-11 20 25 22 43 8 66 -5 6 -4 12 0 12 5 0 9 14 9 30 2 31 -9 39 -22 18 -4 -6
-3 -8 3 -5 5 3 10 0 10 -8 0 -8 -5 -15 -12 -15 -6 0 -11 11 -11 24 0 14 4 22
8 20 4 -3 8 0 8 5 0 6 -5 11 -12 11 -6 0 -8 3 -5 6 4 4 13 1 22 -6 13 -11 14
-10 9 4 -4 11 -1 16 10 16 9 0 16 5 16 11 0 7 -11 9 -29 6 l-29 -6 24 24 c14
14 31 22 39 19 8 -4 15 -1 15 5 0 6 9 11 20 11 13 0 20 7 20 19 0 24 -20 38
-30 21 -4 -7 -10 -8 -14 -2 -3 5 -22 8 -43 6 -34 -3 -36 -3 -18 9 18 10 21 22
20 85 0 62 -3 76 -20 89 -20 15 -20 15 0 9 16 -5 21 -1 22 14 1 11 -2 22 -8
25 -5 3 -6 -1 -3 -9 3 -9 1 -16 -6 -16 -6 0 -8 5 -5 10 3 6 0 10 -7 10 -10 0
-10 2 1 9 7 5 9 11 4 14 -14 9 -9 72 7 92 8 9 15 23 16 31 3 18 -13 27 -22 13
-5 -8 -3 -9 6 -4 9 6 11 4 6 -4 -11 -17 -20 -6 -22 30 l-2 30 24 -23 c13 -13
24 -26 24 -31 0 -15 63 -72 76 -69 9 2 12 -3 8 -15 -5 -15 -4 -16 5 -3 7 10
11 11 11 3 0 -9 6 -7 19 4 11 9 18 20 15 25 -3 4 0 8 6 8 21 0 49 44 38 57 -6
7 -14 10 -19 7 -5 -3 -9 4 -9 15 0 27 4 26 48 -6 l37 -27 -34 36 c-21 23 -31
43 -28 52 4 9 3 15 -1 15 -26 -4 -46 6 -81 42 -23 22 -46 37 -52 34 -6 -4 -29
-27 -51 -52 l-41 -44 -52 51 c-28 27 -53 50 -56 50 -2 0 -29 -25 -58 -54z
m113 -16 c43 -46 55 -79 27 -72 -13 2 -15 -15 -3 -20 5 -1 12 -15 15 -29 5
-19 2 -29 -9 -33 -10 -4 -13 -2 -8 6 5 7 3 8 -6 3 -9 -5 -11 -4 -6 4 4 6 13 8
19 4 7 -4 6 0 -2 10 -7 9 -10 17 -6 17 4 0 2 7 -5 15 -13 16 -4 39 12 29 5 -4
2 5 -7 20 -14 21 -21 24 -36 16 -22 -12 -41 -44 -32 -54 3 -3 1 -6 -4 -6 -6 0
-14 6 -16 13 -4 9 -6 9 -6 0 -2 -20 35 -35 48 -19 6 7 8 16 4 19 -3 4 -1 7 5
7 17 0 15 -10 -5 -34 -15 -18 -16 -19 -1 -8 14 11 16 10 13 -5 -1 -10 -8 -17
-15 -15 -6 1 -8 -2 -4 -9 4 -8 3 -9 -4 -5 -8 5 -10 1 -5 -11 7 -17 6 -17 -11
0 -26 25 -33 21 -9 -5 11 -13 18 -29 16 -35 -3 -7 1 -13 7 -13 9 0 9 -4 0 -15
-10 -12 -10 -19 -2 -27 8 -8 8 -17 1 -30 -14 -26 -6 -32 21 -18 18 10 21 9 15
-1 -6 -8 -4 -10 5 -4 9 6 11 4 5 -5 -5 -9 -4 -11 4 -6 8 6 9 12 2 20 -6 7 -8
16 -4 20 4 4 8 21 9 37 1 25 -1 27 -14 17 -13 -11 -14 -11 -7 2 8 13 7 13 -11
0 -18 -14 -18 -14 -5 2 7 10 17 15 22 12 5 -3 9 0 9 5 0 6 -4 11 -8 11 -4 0
-8 9 -9 21 -2 16 1 18 12 9 8 -6 20 -9 27 -5 7 4 5 0 -4 -8 -10 -8 -15 -17
-12 -20 12 -12 22 -77 12 -77 -7 0 -6 -5 1 -14 9 -11 8 -18 -4 -30 -19 -18
-35 -21 -35 -6 0 6 -4 10 -9 10 -5 0 -8 -11 -7 -25 2 -14 -1 -22 -7 -18 -6 3
-7 1 -3 -5 3 -5 0 -13 -6 -15 -10 -4 -10 -6 -1 -6 7 -1 18 5 25 13 11 11 15
11 25 -3 12 -15 13 -15 7 0 -3 10 -1 20 4 23 5 3 9 -15 9 -41 0 -37 -5 -51
-26 -70 -17 -15 -20 -21 -8 -17 18 6 24 -11 7 -19 -6 -3 -5 -4 2 -3 7 2 13 10
13 19 0 8 4 19 8 23 4 4 7 -7 7 -23 0 -27 -3 -31 -24 -29 -34 4 -55 -16 -54
-52 1 -29 8 -37 31 -33 7 1 11 -15 8 -31 -1 -10 13 -10 22 -1 4 3 2 12 -5 20
-6 7 -8 16 -4 20 3 3 6 0 6 -8 0 -12 2 -11 11 1 9 13 10 13 6 -1 -3 -9 -1 -21
3 -25 5 -5 5 -15 0 -24 -7 -11 -10 -11 -10 -2 0 7 -4 11 -9 8 -13 -8 -6 -42 8
-38 16 3 13 -20 -6 -43 -13 -16 -15 -17 -10 -2 4 9 3 17 -2 17 -14 0 -31 -26
-23 -35 4 -4 -2 -3 -14 3 -44 23 -65 75 -36 91 23 13 44 -17 30 -43 -7 -13 -7
-16 1 -12 6 4 11 2 11 -5 0 -8 4 -8 15 1 19 15 20 34 2 27 -8 -3 -14 1 -14 9
0 8 6 13 13 10 8 -3 11 0 7 10 -4 11 -9 12 -19 3 -8 -6 -14 -8 -14 -4 0 4 8
14 18 22 16 14 16 14 -1 9 -13 -4 -16 -2 -11 7 6 9 4 9 -7 1 -39 -30 -45 -24
-44 34 1 62 8 82 31 82 8 0 12 -4 9 -10 -3 -5 -1 -10 4 -10 6 0 11 3 12 8 0 4
2 15 4 24 4 21 -20 42 -39 35 -8 -3 -17 0 -19 8 -4 8 4 14 24 17 16 3 29 0 29
-5 0 -5 7 -4 15 3 8 7 15 9 15 5 0 -4 -8 -14 -17 -21 -16 -12 -16 -13 -2 -14
20 0 34 18 34 45 0 21 -20 24 -75 10 l-25 -6 0 138 c0 76 4 144 8 151 5 7 4
12 -3 12 -5 0 -24 13 -41 30 l-31 29 43 45 c24 25 47 46 50 46 4 0 27 -23 53
-50z m221 -32 c-15 -11 -27 -10 -20 2 3 6 1 10 -5 10 -7 0 -9 -7 -6 -16 4 -11
2 -15 -8 -11 -11 4 -13 1 -9 -11 3 -9 2 -14 -2 -9 -5 4 -18 -2 -30 -13 l-21
-20 -29 30 -29 30 44 45 44 44 41 -37 c24 -22 36 -40 30 -44z m-212 -31 c-2
-4 -11 -3 -19 4 -10 8 -14 8 -15 0 -3 -26 -4 -30 -11 -37 -8 -8 -2 31 7 46 4
6 11 8 16 5 5 -4 9 0 9 7 0 10 3 9 9 -2 6 -8 7 -18 4 -23z m184 -26 c-27 -26
-45 -36 -52 -30 -11 11 6 44 23 44 6 0 17 6 24 13 6 6 20 12 30 12 12 0 5 -11
-25 -39z m48 -11 c-4 -21 9 -27 20 -10 4 6 11 8 16 4 13 -8 2 -22 -35 -45 -17
-10 -24 -19 -16 -19 13 0 13 -1 0 -10 -9 -5 -19 -5 -27 1 -7 6 -17 8 -22 5 -5
-4 -13 -2 -16 4 -8 13 14 42 26 34 5 -3 9 0 9 7 0 14 29 49 41 49 4 0 6 -9 4
-20z m-229 -13 c-1 -6 -6 -19 -11 -27 -6 -8 -10 -24 -10 -35 0 -25 -17 -36
-21 -13 -1 10 6 28 15 40 10 13 17 31 15 41 -1 9 1 15 6 12 5 -3 7 -11 6 -18z
m69 -27 c-3 -5 -12 -10 -18 -10 -7 0 -6 4 3 10 19 12 23 12 15 0z m-94 -99 c7
12 9 11 9 -1 0 -13 1 -13 10 0 8 12 9 10 7 -9 -2 -14 -14 -32 -27 -40 -22 -15
-23 -15 -12 6 8 14 9 24 2 28 -5 3 -10 12 -9 18 0 8 3 7 6 -2 5 -11 7 -11 14
0z m94 -152 c1 -72 -2 -89 -17 -89 -6 0 -6 6 1 14 9 11 9 15 -1 18 -10 4 -10
8 1 21 9 11 9 17 2 17 -12 0 -10 27 2 48 5 7 3 12 -5 13 -10 0 -10 2 1 6 11 5
11 7 0 15 -11 8 -11 9 1 5 11 -3 15 -20 15 -68z m-5 -379 c-12 -22 -21 -26
-17 -7 2 10 17 26 25 27 1 0 -2 -9 -8 -20z"/>
<path d="M4510 3555 c0 -9 5 -15 11 -13 6 2 11 8 11 13 0 5 -5 11 -11 13 -6 2
-11 -4 -11 -13z"/>
<path d="M4515 3010 c-3 -5 -1 -10 4 -10 6 0 11 5 11 10 0 6 -2 10 -4 10 -3 0
-8 -4 -11 -10z"/>
<path d="M4762 3608 c-7 -7 -18 -13 -24 -13 -6 0 -12 -8 -14 -19 -2 -15 3 -13
27 10 16 15 29 29 29 31 0 6 -6 3 -18 -9z"/>
<path d="M4789 3575 c-1 -3 -2 -9 -3 -14 -2 -13 -16 -26 -28 -26 -6 0 -12 -6
-14 -13 -1 -7 0 -8 3 -2 3 7 12 5 26 -7 11 -10 17 -13 14 -6 -4 6 0 16 10 22
14 8 15 10 3 11 -13 0 -13 1 0 10 13 9 13 10 0 10 -13 0 -13 1 0 10 10 6 11
10 3 10 -7 0 -14 -2 -14 -5z"/>
<path d="M4829 3553 c-13 -16 -12 -17 4 -4 16 13 21 21 13 21 -2 0 -10 -8 -17
-17z"/>
<path d="M4563 3415 c0 -8 4 -12 9 -9 5 3 6 10 3 15 -9 13 -12 11 -12 -6z"/>
<path d="M4950 3699 c0 -5 4 -8 9 -5 5 4 11 0 14 -6 2 -7 8 -9 13 -5 5 4 2 12
-6 17 -20 13 -30 12 -30 -1z"/>
<path d="M4900 3680 c0 -5 7 -10 15 -10 8 0 15 5 15 10 0 6 -7 10 -15 10 -8 0
-15 -4 -15 -10z"/>
<path d="M4370 3529 c0 -5 5 -7 10 -4 6 3 10 8 10 11 0 2 -4 4 -10 4 -5 0 -10
-5 -10 -11z"/>
<path d="M4655 3512 c-15 -10 -13 -74 3 -80 13 -4 12 24 -1 46 -5 6 -4 12 1
12 5 0 9 7 9 15 0 8 -1 15 -1 15 -1 0 -6 -4 -11 -8z"/>
<path d="M4985 3500 c-3 -5 -1 -10 4 -10 6 0 11 5 11 10 0 6 -2 10 -4 10 -3 0
-8 -4 -11 -10z"/>
<path d="M4398 3173 c7 -3 16 -2 19 1 4 3 -2 6 -13 5 -11 0 -14 -3 -6 -6z"/>
<path d="M4293 3057 c-18 -6 -33 -13 -33 -17 0 -13 29 -20 35 -10 4 7 13 6 25
0 13 -7 21 -7 25 0 4 6 21 17 38 25 l32 14 -45 -2 c-25 0 -60 -5 -77 -10z m57
-12 c0 -12 -19 -12 -23 0 -4 9 -1 12 9 8 7 -3 14 -7 14 -8z"/>
<path d="M4440 3040 c0 -5 5 -10 10 -10 6 0 10 5 10 10 0 6 -4 10 -10 10 -5 0
-10 -4 -10 -10z"/>
<path d="M4180 2960 c-6 -11 -8 -20 -6 -20 3 0 10 9 16 20 6 11 8 20 6 20 -3
0 -10 -9 -16 -20z"/>
<path d="M4139 2928 c0 -2 -2 -11 -4 -21 -3 -15 -1 -16 11 -6 7 6 11 15 8 20
-5 9 -13 12 -15 7z"/>
<path d="M4268 2892 c-33 -6 -18 -18 17 -14 19 2 35 8 35 12 0 9 -18 9 -52 2z"/>
<path d="M4385 2890 c-3 -5 -1 -10 4 -10 6 0 11 5 11 10 0 6 -2 10 -4 10 -3 0
-8 -4 -11 -10z"/>
<path d="M4442 2871 c-11 -6 -10 -9 5 -13 22 -6 43 0 43 13 0 11 -31 12 -48 0z"/>
<path d="M4601 2866 c-9 -11 -9 -16 0 -22 7 -4 9 -3 5 4 -3 5 0 12 6 15 7 2
10 7 7 11 -3 4 -12 0 -18 -8z"/>
<path d="M4179 2846 c-3 -3 -70 -13 -101 -15 -5 -1 -8 -5 -8 -11 0 -6 16 -8
38 -5 70 10 92 17 92 26 0 9 -13 12 -21 5z"/>
<path d="M4335 2840 c4 -6 11 -8 16 -5 14 9 11 15 -7 15 -8 0 -12 -5 -9 -10z"/>
<path d="M4290 2829 c0 -5 5 -7 10 -4 6 3 10 8 10 11 0 2 -4 4 -10 4 -5 0 -10
-5 -10 -11z"/>
<path d="M4030 2809 c0 -5 5 -7 10 -4 6 3 10 8 10 11 0 2 -4 4 -10 4 -5 0 -10
-5 -10 -11z"/>
<path d="M4740 2800 c0 -5 5 -10 10 -10 6 0 10 5 10 10 0 6 -4 10 -10 10 -5 0
-10 -4 -10 -10z"/>
<path d="M4508 2783 c-10 -2 -18 -9 -18 -15 0 -5 7 -7 16 -4 9 3 24 6 35 6 10
0 19 5 19 10 0 10 -21 11 -52 3z"/>
<path d="M515 2760 c-3 -5 -1 -10 4 -10 6 0 11 5 11 10 0 6 -2 10 -4 10 -3 0
-8 -4 -11 -10z"/>
<path d="M4349 2756 c-2 -2 -20 -6 -39 -9 -19 -3 -69 -11 -110 -17 -41 -7 -84
-14 -95 -15 -11 -1 -24 -3 -30 -4 -5 -1 -4 -5 3 -10 7 -4 43 -2 80 5 37 7 90
15 117 19 67 8 95 16 95 26 0 9 -13 12 -21 5z"/>
<path d="M4411 2752 c-25 -8 -9 -20 22 -15 44 6 61 24 21 21 -17 -1 -36 -4
-43 -6z"/>
<path d="M4530 2710 c0 -5 5 -10 11 -10 5 0 7 5 4 10 -3 6 -8 10 -11 10 -2 0
-4 -4 -4 -10z"/>
<path d="M4566 2708 c3 -4 11 -5 19 -1 21 7 19 12 -4 10 -11 0 -18 -5 -15 -9z"/>
<path d="M4486 2702 c-2 -4 4 -8 14 -8 10 0 16 4 14 8 -3 4 -9 8 -14 8 -5 0
-11 -4 -14 -8z"/>
<path d="M4270 2675 c0 -8 4 -15 10 -15 5 0 7 7 4 15 -4 8 -8 15 -10 15 -2 0
-4 -7 -4 -15z"/>
<path d="M737 2639 c4 -13 8 -18 11 -10 2 7 -1 18 -6 23 -8 8 -9 4 -5 -13z"/>
<path d="M659 2648 c-5 -18 -6 -38 -1 -34 7 8 12 36 6 36 -2 0 -4 -1 -5 -2z"/>
<path d="M4235 2640 c-3 -5 -1 -10 4 -10 6 0 11 5 11 10 0 6 -2 10 -4 10 -3 0
-8 -4 -11 -10z"/>
<path d="M4290 2640 c0 -5 5 -10 10 -10 6 0 10 5 10 10 0 6 -4 10 -10 10 -5 0
-10 -4 -10 -10z"/>
<path d="M4336 2633 c-6 -14 -5 -15 5 -6 7 7 10 15 7 18 -3 3 -9 -2 -12 -12z"/>
<path d="M676 2615 c-9 -26 -7 -32 5 -12 6 10 9 21 6 23 -2 3 -7 -2 -11 -11z"/>
<path d="M4254 2618 c-5 -7 -2 -8 6 -3 9 6 10 2 5 -16 -4 -13 -6 -22 -3 -19
27 34 28 38 14 43 -9 4 -18 1 -22 -5z"/>
<path d="M4450 2619 c0 -5 5 -7 10 -4 6 3 10 8 10 11 0 2 -4 4 -10 4 -5 0 -10
-5 -10 -11z"/>
<path d="M755 2609 c-4 -6 -5 -12 -2 -15 2 -3 7 2 10 11 7 17 1 20 -8 4z"/>
<path d="M710 2590 c6 -11 13 -20 16 -20 2 0 0 9 -6 20 -6 11 -13 20 -16 20
-2 0 0 -9 6 -20z"/>
<path d="M4295 2591 c-3 -5 0 -13 6 -17 8 -5 9 -3 4 6 -6 9 -1 10 16 5 19 -5
21 -4 9 4 -19 13 -27 14 -35 2z"/>
<path d="M4235 2580 c3 -5 8 -10 11 -10 2 0 4 5 4 10 0 6 -5 10 -11 10 -5 0
-7 -4 -4 -10z"/>
<path d="M676 2565 c23 -17 34 -19 34 -4 0 5 -4 8 -9 4 -5 -3 -12 -1 -16 5 -3
5 -11 10 -18 10 -6 0 -2 -7 9 -15z"/>
<path d="M750 2573 c5 -2 8 -9 4 -14 -3 -5 0 -9 6 -9 15 0 7 23 -8 26 -7 1 -8
0 -2 -3z"/>
<path d="M400 2560 c-9 -6 -10 -10 -3 -10 6 0 15 5 18 10 8 12 4 12 -15 0z"/>
<path d="M720 2540 c-8 -5 -11 -13 -6 -17 5 -4 11 -2 13 5 3 6 10 9 15 6 7 -4
8 -2 4 4 -9 14 -7 14 -26 2z"/>
<path d="M4287 2506 c-12 -14 -17 -16 -14 -5 3 9 -1 16 -8 16 -7 0 -11 -6 -8
-13 2 -6 0 -15 -6 -18 -6 -4 -7 -14 -4 -23 5 -12 3 -14 -7 -8 -9 5 -11 4 -6
-4 10 -15 29 -3 22 15 -3 7 -1 16 4 19 6 4 11 0 11 -7 2 -24 -3 -43 -14 -50
-7 -4 -7 -8 -2 -8 6 0 17 4 24 9 9 6 22 6 33 0 11 -6 18 -6 18 0 0 12 -29 23
-41 15 -5 -3 -9 -1 -9 5 0 17 20 23 35 11 20 -16 19 -3 0 16 -8 9 -15 21 -15
27 0 7 7 4 14 -6 12 -16 14 -15 14 9 0 16 -3 21 -8 14 -5 -7 -9 -8 -11 -2 -2
5 -12 0 -22 -12z m13 -20 c0 -3 -4 -8 -10 -11 -5 -3 -10 -1 -10 4 0 6 5 11 10
11 6 0 10 -2 10 -4z"/>
<path d="M4340 2500 c0 -5 7 -7 15 -4 8 4 15 8 15 10 0 2 -7 4 -15 4 -8 0 -15
-4 -15 -10z"/>
<path d="M835 2491 c-3 -5 -2 -12 3 -15 5 -3 9 1 9 9 0 17 -3 19 -12 6z"/>
<path d="M4360 2486 c0 -2 7 -7 16 -10 8 -3 12 -2 9 4 -6 10 -25 14 -25 6z"/>
<path d="M4345 2445 c0 -18 4 -37 8 -41 4 -5 5 0 1 10 -6 15 -4 17 7 11 8 -4
11 -5 7 0 -4 4 -3 14 3 21 7 9 5 15 -8 22 -16 9 -18 6 -18 -23z"/>
<path d="M4280 2410 c-8 -5 -11 -13 -6 -17 5 -4 11 -2 13 5 3 6 9 12 14 12 6
0 8 -4 5 -8 -2 -4 4 -8 15 -8 19 0 19 1 3 13 -21 15 -24 16 -44 3z"/>
<path d="M4385 2260 c-3 -5 3 -10 15 -10 12 0 18 5 15 10 -3 6 -10 10 -15 10
-5 0 -12 -4 -15 -10z"/>
<path d="M4260 2240 c0 -5 5 -10 11 -10 5 0 7 5 4 10 -3 6 -8 10 -11 10 -2 0
-4 -4 -4 -10z"/>
<path d="M4296 2242 c-3 -5 1 -9 9 -9 8 0 15 4 15 9 0 4 -4 8 -9 8 -6 0 -12
-4 -15 -8z"/>
<path d="M4216 2231 c9 -9 34 -9 34 -1 0 5 -9 8 -20 7 -10 -1 -17 -3 -14 -6z"/>
<path d="M4135 2219 c-4 -6 -5 -12 -4 -14 7 -7 59 8 59 16 0 13 -47 11 -55 -2z"/>
<path d="M4085 2209 c-10 -15 3 -25 16 -12 7 7 7 13 1 17 -6 3 -14 1 -17 -5z"/>
<path d="M4310 1896 c0 -2 8 -10 18 -17 15 -13 16 -12 3 4 -13 16 -21 21 -21
13z"/>
<path d="M4066 1853 c-6 -15 8 -32 25 -33 14 0 19 34 7 42 -19 11 -25 10 -32
-9z"/>
<path d="M3938 1828 c-46 -12 -51 -29 -5 -19 17 4 35 8 40 9 4 1 18 2 32 2 14
0 25 5 25 10 0 12 -42 11 -92 -2z"/>
<path d="M1464 1719 c-6 -10 6 -16 26 -14 8 1 28 3 43 3 16 1 25 6 22 12 -7
11 -83 11 -91 -1z"/>
<path d="M1260 1690 c0 -5 7 -10 15 -10 8 0 15 5 15 10 0 6 -7 10 -15 10 -8 0
-15 -4 -15 -10z"/>
<path d="M3630 1559 c0 -5 5 -7 10 -4 6 3 10 8 10 11 0 2 -4 4 -10 4 -5 0 -10
-5 -10 -11z"/>
<path d="M3619 1446 c-4 -4 -84 -18 -107 -19 -7 0 -11 -5 -9 -11 7 -19 137 -8
137 11 0 12 -14 25 -21 19z"/>
<path d="M3680 1441 c0 -5 9 -11 20 -14 13 -3 20 0 20 9 0 8 -9 14 -20 14 -11
0 -20 -4 -20 -9z"/>
<path d="M3795 1400 c3 -5 8 -10 11 -10 2 0 4 5 4 10 0 6 -5 10 -11 10 -5 0
-7 -4 -4 -10z"/>
<path d="M3318 1395 c-3 -3 -20 -8 -39 -10 -59 -9 -64 -10 -64 -20 0 -11 20
-12 78 -3 45 7 48 9 38 26 -4 7 -10 10 -13 7z"/>
<path d="M3710 1319 c0 -5 5 -7 10 -4 6 3 10 8 10 11 0 2 -4 4 -10 4 -5 0 -10
-5 -10 -11z"/>
<path d="M3795 1320 c3 -5 8 -10 11 -10 2 0 4 5 4 10 0 6 -5 10 -11 10 -5 0
-7 -4 -4 -10z"/>
</g>
</svg>
